<?xml version="1.0" encoding="UTF-8" standalone="no"?>
<svg
   xmlns:dc="http://purl.org/dc/elements/1.1/"
   xmlns:cc="http://creativecommons.org/ns#"
   xmlns:rdf="http://www.w3.org/1999/02/22-rdf-syntax-ns#"
   xmlns:svg="http://www.w3.org/2000/svg"
   xmlns="http://www.w3.org/2000/svg"
   xmlns:sodipodi="http://sodipodi.sourceforge.net/DTD/sodipodi-0.dtd"
   xmlns:inkscape="http://www.inkscape.org/namespaces/inkscape"
   version="1.1"
   id="svg3877"
   width="680"
   height="672"
   viewBox="0 0 680 672"
   sodipodi:docname="np.svg"
   inkscape:version="1.0.2-2 (e86c870879, 2021-01-15)"
   inkscape:export-filename="W:\ws_tds_vscode\tds-monitor-standalone\src\main\resources\icons\np\1024x1024.png"
   inkscape:export-xdpi="144.57143"
   inkscape:export-ydpi="144.57143">
  <metadata
     id="metadata3883">
    <rdf:RDF>
      <cc:Work
         rdf:about="">
        <dc:format>image/svg+xml</dc:format>
        <dc:type
           rdf:resource="http://purl.org/dc/dcmitype/StillImage" />
        <dc:title />
      </cc:Work>
    </rdf:RDF>
  </metadata>
  <defs
     id="defs3881" />
  <sodipodi:namedview
     pagecolor="#ffffff"
     bordercolor="#666666"
     borderopacity="1"
     objecttolerance="10"
     gridtolerance="10"
     guidetolerance="10"
     inkscape:pageopacity="0"
     inkscape:pageshadow="2"
     inkscape:window-width="886"
     inkscape:window-height="696"
     id="namedview3879"
     showgrid="false"
     inkscape:zoom="0.19807056"
     inkscape:cx="289.14588"
     inkscape:cy="557.19129"
     inkscape:window-x="-7"
     inkscape:window-y="0"
     inkscape:window-maximized="0"
     inkscape:current-layer="svg3877"
     inkscape:document-rotation="0" />
  <g
     id="g1338"
     transform="translate(100,0.44805929)">
    <g
       id="g104"
       transform="matrix(18.506731,0,0,18.518319,-20.019575,-17.962769)">
      <path
         class="st0"
         d="m 10.5,21.12 c 0,0 1.97,-1.97 3.37,-3.37 l -1.39,-1.39 c -0.03,-0.03 -0.07,-0.06 -0.1,-0.1 -0.02,-0.02 -0.04,-0.04 -0.06,-0.06 l -0.14,-0.16 c -0.41,-0.51 -0.63,-1.12 -0.66,-1.74 -1.29,1.28 -3.02,3.02 -4.26,4.25 0.04,0.71 0.32,1.41 0.86,1.96 l 1.55,1.55 c 0.25,-0.33 0.52,-0.65 0.83,-0.94 z"
         id="path2" />
      <linearGradient
         id="SVGID_1_"
         gradientUnits="userSpaceOnUse"
         x1="7.2627001"
         y1="18.180599"
         x2="13.8697"
         y2="18.180599">
        <stop
           offset="0"
           style="stop-color:#009ABF"
           id="stop4" />
        <stop
           offset="1"
           style="stop-color:#009ABF;stop-opacity:0"
           id="stop6" />
      </linearGradient>
      <linearGradient
         id="SVGID_1_WHITE"
         gradientUnits="userSpaceOnUse"
         x1="7.2627001"
         y1="18.180599"
         x2="13.8697"
         y2="18.180599">
        <stop
           offset="0"
           stop-color="#fff"
           stop-opacity="0.5"
           id="stop9" />
        <stop
           offset="0.17"
           stop-color="#fff"
           stop-opacity="0.48"
           id="stop11" />
        <stop
           offset="0.38"
           stop-color="#fff"
           stop-opacity="0.42"
           id="stop13" />
        <stop
           offset="0.61"
           stop-color="#fff"
           stop-opacity="0.32"
           id="stop15" />
        <stop
           offset="0.85"
           stop-color="#fff"
           stop-opacity="0.18"
           id="stop17" />
        <stop
           offset="0.98"
           stop-color="#fff"
           stop-opacity="0.1"
           id="stop19" />
        <stop
           offset="1"
           stop-color="#fff"
           stop-opacity="0.2"
           id="stop21" />
      </linearGradient>
      <path
         class="st1"
         d="m 10.5,21.12 c 0,0 1.97,-1.97 3.37,-3.37 l -1.39,-1.39 c -0.03,-0.03 -0.07,-0.06 -0.1,-0.1 -0.02,-0.02 -0.04,-0.04 -0.06,-0.06 l -0.14,-0.16 c -0.41,-0.51 -0.63,-1.12 -0.66,-1.74 -1.29,1.28 -3.02,3.02 -4.26,4.25 0.04,0.71 0.32,1.41 0.86,1.96 l 1.55,1.55 c 0.25,-0.33 0.52,-0.65 0.83,-0.94 z"
         id="path24" />
      <path
         class="st0"
         d="m 22.58,17.96 -4.41,-4.4 c 2.18,2.22 2.28,5.72 0.29,8.06 -0.06,0.07 -0.12,0.13 -0.18,0.19 -0.01,0.01 -0.06,0.06 -0.16,0.16 0.38,0.38 1.03,1.03 1.56,1.56 0.02,0.02 0.03,0.03 0.04,0.05 0.47,0.51 0.74,1.13 0.8,1.78 0.95,-0.95 1.79,-1.79 1.87,-1.87 1.53,-1.51 1.6,-3.94 0.19,-5.53 z"
         id="path26" />
      <linearGradient
         id="SVGID_2_"
         gradientUnits="userSpaceOnUse"
         x1="18.117201"
         y1="19.460199"
         x2="23.5893"
         y2="19.460199">
        <stop
           offset="0"
           style="stop-color:#009ABF;stop-opacity:0"
           id="stop28" />
        <stop
           offset="1"
           style="stop-color:#009ABF"
           id="stop30" />
      </linearGradient>
      <linearGradient
         id="SVGID_2_WHITE"
         gradientUnits="userSpaceOnUse"
         x1="18.117201"
         y1="19.460199"
         x2="23.5893"
         y2="19.460199">
        <stop
           offset="0"
           stop-color="#fff"
           stop-opacity="0.1"
           id="stop33" />
        <stop
           offset="0.26"
           stop-color="#fff"
           stop-opacity="0.22"
           id="stop35" />
        <stop
           offset="0.54"
           stop-color="#fff"
           stop-opacity="0.32"
           id="stop37" />
        <stop
           offset="0.8"
           stop-color="#fff"
           stop-opacity="0.38"
           id="stop39" />
        <stop
           offset="1"
           stop-color="#fff"
           stop-opacity="0.4"
           id="stop41" />
      </linearGradient>
      <path
         class="st2"
         d="m 22.58,17.96 -4.41,-4.4 c 2.18,2.22 2.28,5.72 0.29,8.06 -0.06,0.07 -0.12,0.13 -0.18,0.19 -0.01,0.01 -0.06,0.06 -0.16,0.16 0.38,0.38 1.03,1.03 1.56,1.56 0.02,0.02 0.03,0.03 0.04,0.05 0.47,0.51 0.74,1.13 0.8,1.78 0.95,-0.95 1.79,-1.79 1.87,-1.87 1.53,-1.51 1.6,-3.94 0.19,-5.53 z"
         id="path44" />
      <path
         class="st3-1"
         d="m 18.17,13.56 c 0,0 0,0 0,0 -0.02,-0.02 -0.08,-0.08 -0.1,-0.1 -0.33,-0.33 -1.58,-1.58 -2.63,-2.63 1.41,1.59 1.35,4.02 -0.18,5.53 -0.07,0.07 -0.65,0.65 -1.39,1.38 -1.4,1.41 -3.37,3.37 -3.37,3.37 -0.31,0.29 -0.58,0.61 -0.83,0.95 -0.19,0.26 -0.37,0.53 -0.52,0.81 -0.52,0.9 -0.82,1.9 -0.82,3.02 0,1.49 0.53,2.85 1.41,3.91 0,-0.01 -0.01,-0.01 -0.02,-0.02 0.07,0.08 0.15,0.16 0.22,0.24 0.01,0.01 0.06,0.06 0.06,0.06 0,0 6.96,-6.95 8.11,-8.11 0.1,-0.1 0.15,-0.15 0.16,-0.16 0.06,-0.06 0.12,-0.13 0.18,-0.19 2,-2.34 1.9,-5.84 -0.28,-8.06 z"
         id="path46" />
      <linearGradient
         id="SVGID_3_"
         gradientUnits="userSpaceOnUse"
         x1="8.3271999"
         y1="20.454599"
         x2="19.882299"
         y2="20.454599">
        <stop
           offset="0"
           style="stop-color:#009ABF"
           id="stop48" />
        <stop
           offset="1"
           style="stop-color:#009ABF;stop-opacity:0"
           id="stop50" />
      </linearGradient>
      <linearGradient
         id="SVGID_3_WHITE"
         x1="8.7799997"
         y1="23.67"
         x2="22.82"
         y2="23.67"
         gradientUnits="userSpaceOnUse">
        <stop
           offset="0"
           stop-color="#fff"
           stop-opacity="0.8"
           id="stop53" />
        <stop
           offset="0.19"
           stop-color="#fff"
           stop-opacity="0.78"
           id="stop55" />
        <stop
           offset="0.42"
           stop-color="#fff"
           stop-opacity="0.72"
           id="stop57" />
        <stop
           offset="0.66"
           stop-color="#fff"
           stop-opacity="0.63"
           id="stop59" />
        <stop
           offset="0.92"
           stop-color="#fff"
           stop-opacity="0.5"
           id="stop61" />
        <stop
           offset="1"
           stop-color="#fff"
           stop-opacity="0.45"
           id="stop63" />
      </linearGradient>
      <path
         class="st4"
         d="m 18.17,13.56 c 0,0 0,0 0,0 -0.02,-0.02 -1.68,-1.68 -2.73,-2.73 1.41,1.59 1.35,4.02 -0.18,5.53 -0.07,0.07 -0.65,0.65 -1.39,1.38 -1.4,1.41 -3.37,3.37 -3.37,3.37 -0.31,0.29 -0.58,0.61 -0.83,0.95 -0.19,0.26 -0.37,0.53 -0.52,0.81 -0.52,0.9 -0.82,1.9 -0.82,3.02 0,1.49 0.53,2.85 1.41,3.91 0,-0.01 -0.01,-0.01 -0.02,-0.02 0.07,0.08 0.15,0.16 0.22,0.24 0.01,0.01 0.06,0.06 0.06,0.06 0,0 6.96,-6.95 8.11,-8.11 0.1,-0.1 0.15,-0.15 0.16,-0.16 0.06,-0.06 0.12,-0.13 0.18,-0.19 2,-2.34 1.9,-5.84 -0.28,-8.06 z"
         id="path66" />
      <path
         class="st3"
         d="m 25.31,20.7 c -0.01,-0.01 -0.08,-0.08 -0.1,-0.1 -0.26,-0.26 -1.06,-1.06 -1.9,-1.9 -0.2,-0.2 -0.4,-0.4 -0.6,-0.6 l -0.14,-0.14 c 1.41,1.59 1.35,4.02 -0.18,5.53 -0.08,0.08 -0.92,0.92 -1.87,1.87 -1.33,1.33 -2.89,2.89 -2.89,2.89 -0.54,0.52 -0.99,1.12 -1.35,1.75 -0.51,0.9 -0.82,1.9 -0.82,3.02 0,1.49 0.53,2.85 1.42,3.91 -0.01,-0.01 -0.01,-0.01 -0.02,-0.02 0.07,0.08 0.14,0.16 0.22,0.24 0.01,0.01 0.06,0.06 0.06,0.06 0,0 8.18,-8.17 8.28,-8.27 0.06,-0.06 0.12,-0.13 0.18,-0.19 1.98,-2.33 1.89,-5.83 -0.29,-8.05 z"
         id="path68" />
      <g
         id="g72">
        <path
           class="st5"
           d="m 12.58,11.43 c -0.13,-0.13 -0.21,-0.31 -0.21,-0.5 0,-0.19 0.07,-0.37 0.2,-0.5 l 0.27,-0.27 -0.92,-0.92 c -0.13,-0.13 -0.2,-0.31 -0.2,-0.5 0,-0.19 0.07,-0.37 0.2,-0.5 L 12.38,7.78 11.46,6.86 C 11.33,6.73 11.25,6.55 11.25,6.36 11.25,6.2 11.3,6.05 11.4,5.93 L 10.45,6.88 3.12,14.2 3.03,14.29 c -0.1,0.1 -0.26,0.26 -0.35,0.35 -0.06,0.06 -0.12,0.13 -0.18,0.19 -1.98,2.33 -1.89,5.83 0.29,8.05 0.01,0.01 0.03,0.03 0.05,0.05 0.33,0.33 1.64,1.64 2.69,2.69 -1.41,-1.59 -1.35,-4.02 0.18,-5.53 0.06,-0.05 0.67,-0.67 1.53,-1.53 1.24,-1.23 2.97,-2.97 4.26,-4.25 1,-1 1.88,-1.88 1.96,-1.96 z"
           id="path70" />
      </g>
      <g
         id="g102">
        <g
           id="g82">
          <path
             class="st5"
             d="M 13.73,5.92 13.47,5.67 13.21,5.41 12.96,5.16 12.71,5.41 12.45,5.67 12.2,5.92 c -0.14,0.14 -0.14,0.37 0,0.51 l 0.26,0.25 0.26,0.26 0.25,0.25 0.25,-0.25 0.26,-0.26 0.26,-0.25 C 13.87,6.29 13.87,6.06 13.73,5.92 Z"
             id="path74" />
          <path
             class="st5"
             d="m 15.04,4.26 -0.2,-0.2 -0.2,-0.2 -0.2,-0.2 -0.2,0.2 -0.2,0.2 -0.2,0.2 c -0.11,0.11 -0.11,0.29 0,0.4 l 0.2,0.2 0.2,0.2 0.2,0.2 0.2,-0.2 0.2,-0.2 0.2,-0.2 c 0.11,-0.12 0.11,-0.29 0,-0.4 z"
             id="path76" />
          <path
             class="st5"
             d="M 16.25,2.71 16.11,2.57 15.97,2.43 15.83,2.29 15.69,2.43 15.55,2.57 15.4,2.71 c -0.08,0.08 -0.08,0.21 0,0.28 l 0.14,0.14 0.14,0.14 0.14,0.14 0.14,-0.14 0.14,-0.14 0.14,-0.14 c 0.09,-0.08 0.09,-0.2 0.01,-0.28 z"
             id="path78" />
          <path
             class="st5"
             d="m 17.43,1.26 -0.1,-0.1 -0.09,-0.1 -0.1,-0.09 -0.1,0.09 -0.1,0.1 -0.1,0.1 c -0.05,0.05 -0.05,0.14 0,0.19 l 0.1,0.1 0.1,0.1 0.1,0.1 0.1,-0.1 0.09,-0.1 0.1,-0.1 c 0.05,-0.05 0.05,-0.14 0,-0.19 z"
             id="path80" />
        </g>
        <g
           id="g92">
          <path
             class="st5"
             d="M 14.19,8.31 13.93,8.05 13.67,7.79 13.42,7.54 13.17,7.79 12.92,8.05 12.66,8.31 c -0.14,0.14 -0.14,0.37 0,0.51 l 0.26,0.26 0.25,0.25 0.25,0.25 0.25,-0.25 0.26,-0.25 0.26,-0.26 c 0.14,-0.14 0.14,-0.37 0,-0.51 z"
             id="path84" />
          <path
             class="st5"
             d="m 15.51,6.65 -0.2,-0.2 -0.2,-0.2 -0.2,-0.2 -0.2,0.2 -0.2,0.2 -0.2,0.2 c -0.11,0.11 -0.11,0.29 0,0.4 l 0.2,0.2 0.2,0.2 0.2,0.2 0.2,-0.2 0.2,-0.2 0.2,-0.2 c 0.11,-0.11 0.11,-0.29 0,-0.4 z"
             id="path86" />
          <path
             class="st5"
             d="M 16.72,5.08 16.58,4.94 16.43,4.8 16.29,4.66 16.15,4.8 16.01,4.94 15.87,5.08 c -0.08,0.08 -0.08,0.21 0,0.28 l 0.14,0.14 0.14,0.14 0.14,0.14 0.14,-0.14 0.14,-0.14 0.14,-0.14 C 16.8,5.29 16.8,5.16 16.72,5.08 Z"
             id="path88" />
          <path
             class="st5"
             d="m 17.82,3.73 -0.1,-0.09 -0.1,-0.1 -0.09,-0.1 -0.1,0.1 -0.1,0.1 -0.1,0.09 c -0.05,0.05 -0.05,0.14 0,0.19 l 0.1,0.09 0.1,0.1 0.1,0.1 0.09,-0.1 0.1,-0.1 0.1,-0.09 c 0.05,-0.06 0.05,-0.14 0,-0.19 z"
             id="path90" />
        </g>
        <g
           id="g100">
          <path
             class="st5"
             d="M 14.83,10.48 14.57,10.22 14.31,9.96 14.06,9.71 13.8,9.96 l -0.26,0.26 -0.25,0.26 c -0.14,0.14 -0.14,0.37 0,0.51 l 0.25,0.26 0.26,0.26 0.26,0.25 0.25,-0.25 0.26,-0.26 0.26,-0.26 c 0.14,-0.15 0.14,-0.37 0,-0.51 z"
             id="path94" />
          <path
             class="st5"
             d="m 16.15,8.82 -0.2,-0.2 -0.2,-0.2 -0.2,-0.2 -0.2,0.2 -0.2,0.2 -0.2,0.2 c -0.11,0.11 -0.11,0.29 0,0.39 l 0.2,0.2 0.2,0.2 0.2,0.2 0.2,-0.2 0.2,-0.2 0.2,-0.2 c 0.11,-0.1 0.11,-0.28 0,-0.39 z"
             id="path96" />
          <path
             class="st5"
             d="M 17.36,7.27 17.21,7.13 17.07,6.99 16.93,6.85 16.79,6.99 16.65,7.13 16.51,7.27 c -0.08,0.08 -0.08,0.21 0,0.28 l 0.14,0.14 0.14,0.14 0.14,0.14 0.14,-0.14 0.14,-0.14 0.15,-0.14 c 0.08,-0.07 0.08,-0.2 0,-0.28 z"
             id="path98" />
        </g>
      </g>
    </g>
  </g>
</svg>
